<!--?xml version="1.0" encoding="utf-8"?-->
<svg width="512" height="512" viewBox="0 0 512 512" xmlns="http://www.w3.org/2000/svg" role="img" aria-label="default avatar">
  <!-- Background circle (Instagram-like neutral grey) -->
  <circle cx="256" cy="256" r="256" fill="#E6E6E6"></circle>

  <!-- Silhouette (head) -->
  <circle cx="256" cy="170" r="70" fill="#FFFFFF"></circle>

  <!-- Silhouette (shoulders/body) -->
  <ellipse cx="256" cy="340" rx="135" ry="80" fill="#FFFFFF"></ellipse>
  
  <!-- subtle inner shadow to match Instagram-ish look (optional) -->
  <g opacity="0.06" fill="#000000">
    <path d="M256 430c-80 0-150-50-150-90 0-18 12-34 33-46 8-4 18-2 22 6 6 11 18 18 30 18 13 0 25-8 31-20 6-12 19-18 31-18s25 6 31 18c6 12 18 20 31 20 12 0 24-7 30-18 4-8 14-10 22-6 21 12 33 28 33 46 0 40-70 90-150 90z"></path>
  </g>
</svg>
